{"title":"Concussion (2015) BRRIP 1080P NO CINAVIA","uid":13925181,"size":2554236615,"categoryP":"video","categoryS":"hd___movies","magnet":"?xt=urn:btih:1649a84b8af694ff0582e93dc5b02a189e984da7&amp;dn=Concussion+%282015%29+BRRIP+1080P+NO+CINAVIA&amp;tr=udp%3A%2F%2Ftracker.leechers-paradise.org%3A6969&amp;tr=udp%3A%2F%2Fzer0day.ch%3A1337&amp;tr=udp%3A%2F%2Fopen.demonii.com%3A1337&amp;tr=udp%3A%2F%2Ftracker.coppersurfer.tk%3A6969&amp;tr=udp%3A%2F%2Fexodus.desync.com%3A6969","seeders":1,"leechers":3,"uploader":"jmanwf","files":3,"time":1458372086,"description":"In Pittsburgh, accomplished pathologist Dr. Bennet Omalu uncovers the truth about brain damage in football players who suffer repeated concussions in the course of normal play.\r\n\r\n\r\nVideo\r\nID : 1\r\nFormat : AVC\r\nFormat/Info : Advanced Video Codec\r\nFormat profile :   \r\nFormat settings, CABAC : Yes\r\nFormat settings, ReFrames : 4 frames\r\nCodec ID : avc1\r\nCodec ID/Info : Advanced Video Coding\r\nDuration : 2h 2mn\r\nBit rate : 2 500 Kbps\r\nWidth : 1 920 pixels\r\nHeight : 808 pixels\r\nDisplay aspect ratio : 2.40:1\r\nFrame rate mode : Constant\r\nFrame rate : 23.976 fps\r\nColor space : YUV\r\nChroma subsampling : 4:2:0\r\nBit depth : 8 bits\r\nScan type : Progressive\r\nBits/(Pixel*Frame) : 0.067\r\nStream size : 2.14 GiB (92%)\r\nWriting library : x264 core 148 r2597M e86f3a1\r\nEncoded date : UTC 2016-03-09 08:48:19\r\nTagged date : UTC 2016-03-09 08:48:19\r\n\r\nAudio\r\nID : 2\r\nFormat : AAC\r\nFormat/Info : Advanced Audio Codec\r\nFormat profile : LC\r\nCodec ID : 40\r\nDuration : 2h 2mn\r\nBit rate mode : Variable\r\nBit rate : 224 Kbps\r\nMaximum bit rate : 896 Kbps\r\nChannel(s) : 2 channels\r\nChannel(s)_Original : 6 channels\r\nChannel positions : Front: L C R, Side: L R, LFE\r\nSampling rate : 48.0 KHz\r\nCompression mode : Lossy\r\nStream size : 197 MiB (8%)\r\nLanguage : English\r\nEncoded date : UTC 2016-03-09 08:48:19\r\nTagged date : UTC 2016-03-09 08:48:19","torrent":{"xt":"urn:btih:1649a84b8af694ff0582e93dc5b02a189e984da7","amp;dn":"Concussion+%282015%29+BRRIP+1080P+NO+CINAVIA","amp;tr":["udp%3A%2F%2Ftracker.leechers-paradise.org%3A6969","udp%3A%2F%2Fzer0day.ch%3A1337","udp%3A%2F%2Fopen.demonii.com%3A1337","udp%3A%2F%2Ftracker.coppersurfer.tk%3A6969","udp%3A%2F%2Fexodus.desync.com%3A6969"],"infoHash":"1649a84b8af694ff0582e93dc5b02a189e984da7","infoHashBuffer":{"type":"Buffer","data":[22,73,168,75,138,246,148,255,5,130,233,61,197,176,42,24,158,152,77,167]},"announce":[],"urlList":[]}}